<svg width="68" height="78" viewBox="0 0 68 78" fill="none" xmlns="http://www.w3.org/2000/svg">
<path d="M38.3369 11.0746L23.0185 26.393C21.717 27.6945 21.717 29.8047 23.0185 31.1063L30.0885 38.1763C31.3901 39.4779 33.5003 39.4779 34.8019 38.1763L50.1202 22.858C51.4218 21.5564 51.4218 19.4462 50.1202 18.1446L43.0502 11.0746C41.7486 9.77308 39.6384 9.77308 38.3369 11.0746Z" fill="#407BFF"/>
<path d="M50.381 15.2966L55.0952 10.5831L56.2737 11.7618C56.5862 12.0744 57.0101 12.25 57.4522 12.25C57.8942 12.25 58.3181 12.0744 58.6307 11.7618L59.8092 10.5831C60.1217 10.2706 60.2973 9.84667 60.2973 9.40465C60.2973 8.96263 60.1217 8.53871 59.8092 8.22615L52.738 1.15465C52.4254 0.842094 52.0015 0.666504 51.5595 0.666504C51.1175 0.666504 50.6936 0.842094 50.381 1.15465L49.2025 2.33315C48.8899 2.64571 48.7144 3.06963 48.7144 3.51165C48.7144 3.95367 48.8899 4.37759 49.2025 4.69015L50.381 5.86865L45.667 10.5831L50.381 15.2966Z" fill="#407BFF"/>
<path d="M60.6673 67.3331H59.631C62.5022 64.151 64.6559 60.3889 65.9463 56.3018C67.2367 52.2147 67.6336 47.8979 67.1101 43.644C66.5866 39.3901 65.1549 35.2984 62.9121 31.6461C60.6693 27.9938 57.6677 24.8662 54.1107 22.4751C53.8009 23.5066 53.2435 24.4466 52.487 25.2131L47.537 30.1631C50.0153 31.6347 52.146 33.625 53.783 35.9974C55.4199 38.3698 56.5244 41.0682 57.0205 43.9075C57.5167 46.7468 57.3929 49.6599 56.6575 52.4469C55.9222 55.2338 54.5927 57.8288 52.7603 60.0537C50.928 62.2786 48.636 64.0809 46.0417 65.3369C43.4474 66.5928 40.6122 67.2728 37.7304 67.3302C34.8486 67.3875 31.9885 66.8209 29.3463 65.6691C26.7041 64.5173 24.3423 62.8077 22.4228 60.6574C22.3925 60.6574 22.3645 60.6664 22.334 60.6664H10.5007C11.694 63.0809 13.2076 65.3234 15.0007 67.3331H14.0007C12.2331 67.335 10.5385 68.038 9.2887 69.2878C8.03887 70.5376 7.33588 72.2322 7.33398 73.9998V75.6664C7.33398 76.1085 7.50958 76.5324 7.82214 76.8449C8.1347 77.1575 8.55862 77.3331 9.00065 77.3331H65.6673C66.1093 77.3331 66.5333 77.1575 66.8458 76.8449C67.1584 76.5324 67.334 76.1085 67.334 75.6664V73.9998C67.3321 72.2322 66.6291 70.5376 65.3793 69.2878C64.1294 68.038 62.4348 67.335 60.6673 67.3331Z" fill="black"/>
<path d="M60.6673 67.3331H59.631C62.5022 64.151 64.6559 60.3889 65.9463 56.3018C67.2367 52.2147 67.6336 47.8979 67.1101 43.644C66.5866 39.3901 65.1549 35.2984 62.9121 31.6461C60.6693 27.9938 57.6677 24.8662 54.1107 22.4751C53.8009 23.5066 53.2435 24.4466 52.487 25.2131L47.537 30.1631C50.0153 31.6347 52.146 33.625 53.783 35.9974C55.4199 38.3698 56.5244 41.0682 57.0205 43.9075C57.5167 46.7468 57.3929 49.6599 56.6575 52.4469C55.9222 55.2338 54.5927 57.8288 52.7603 60.0537C50.928 62.2786 48.636 64.0809 46.0417 65.3369C43.4474 66.5928 40.6122 67.2728 37.7304 67.3302C34.8486 67.3875 31.9885 66.8209 29.3463 65.6691C26.7041 64.5173 24.3423 62.8077 22.4228 60.6574C22.3925 60.6574 22.3645 60.6664 22.334 60.6664H10.5007C11.694 63.0809 13.2076 65.3234 15.0007 67.3331H14.0007C12.2331 67.335 10.5385 68.038 9.2887 69.2878C8.03887 70.5376 7.33588 72.2322 7.33398 73.9998V75.6664C7.33398 76.1085 7.50958 76.5324 7.82214 76.8449C8.1347 77.1575 8.55862 77.3331 9.00065 77.3331H65.6673C66.1093 77.3331 66.5333 77.1575 66.8458 76.8449C67.1584 76.5324 67.334 76.1085 67.334 75.6664V73.9998C67.3321 72.2322 66.6291 70.5376 65.3793 69.2878C64.1294 68.038 62.4348 67.335 60.6673 67.3331Z" fill="#151516"/>
<path d="M27.3337 52.3331V50.6664C27.3337 50.2244 27.1581 49.8005 26.8455 49.4879C26.5329 49.1753 26.109 48.9998 25.667 48.9998H2.33366C1.89163 48.9998 1.46771 49.1753 1.15515 49.4879C0.842587 49.8005 0.666992 50.2244 0.666992 50.6664V52.3331C0.668448 53.6587 1.1957 54.9297 2.13307 55.867C3.07043 56.8044 4.34136 57.3316 5.66699 57.3331H22.3337C23.6593 57.3316 24.9302 56.8044 25.8676 55.867C26.805 54.9297 27.3322 53.6587 27.3337 52.3331Z" fill="black"/>
<path d="M27.3337 52.3331V50.6664C27.3337 50.2244 27.1581 49.8005 26.8455 49.4879C26.5329 49.1753 26.109 48.9998 25.667 48.9998H2.33366C1.89163 48.9998 1.46771 49.1753 1.15515 49.4879C0.842587 49.8005 0.666992 50.2244 0.666992 50.6664V52.3331C0.668448 53.6587 1.1957 54.9297 2.13307 55.867C3.07043 56.8044 4.34136 57.3316 5.66699 57.3331H22.3337C23.6593 57.3316 24.9302 56.8044 25.8676 55.867C26.805 54.9297 27.3322 53.6587 27.3337 52.3331Z" fill="#151516"/>
<path d="M24.2025 41.7122C24.5151 42.0247 24.939 42.2003 25.381 42.2003C25.823 42.2003 26.2469 42.0247 26.5595 41.7122L27.7385 40.5333L20.667 33.4635L19.489 34.6415C19.1764 34.9541 19.0009 35.378 19.0009 35.82C19.0009 36.262 19.1764 36.6859 19.489 36.9985L24.2025 41.7122Z" fill="#407BFF"/>
</svg>
