<svg width="70" height="60" viewBox="0 0 70 60" fill="none" xmlns="http://www.w3.org/2000/svg">
<path d="M0.0249267 12.9943L0.0901645 13.0437C0.940398 13.6663 1.96804 14.0542 3.08137 14.1146L3.38711 14.1229H62.0969L62.2959 14.1288C64.008 14.2295 65.379 15.6222 65.4781 17.3615L65.484 17.5637L65.4828 29.0329H59.8389C55.5649 29.0329 52.0834 32.4793 51.9402 36.7854L51.9355 37.0613C51.9355 41.4031 55.3281 44.9398 59.567 45.0852L59.8387 45.09H65.4826L65.4838 56.5592L65.4779 56.7614C65.3788 58.5007 64.0079 59.8934 62.2957 59.9941L62.0967 60H3.65507L3.45683 59.9943C1.75129 59.8942 0.382858 58.5119 0.274778 56.78L0.267962 56.5786L0.0249267 12.9943ZM67.742 31.3269C68.9891 31.3269 70 32.3539 70 33.6207V40.5024C70 41.7692 68.9891 42.7962 67.742 42.7962H59.8387C56.7209 42.7962 54.1936 40.2288 54.1936 37.0615C54.1936 33.8943 56.7209 31.3269 59.8387 31.3269H67.742ZM59.8387 34.7677C58.5916 34.7677 57.5807 35.7947 57.5807 37.0615C57.5807 38.3284 58.5916 39.3554 59.8387 39.3554C61.0858 39.3554 62.0967 38.3284 62.0967 37.0615C62.0967 35.7947 61.0858 34.7677 59.8387 34.7677ZM24.6784 4.94726L17.903 11.8289L3.38711 11.8291L3.18809 11.8231C1.41011 11.7187 0 10.2207 0 8.38827C0 6.5558 1.41011 5.05805 3.18809 4.9534L3.38711 4.94746L24.6784 4.94726ZM54.1936 4.94746L54.3926 4.9534C56.1047 5.05409 57.4757 6.44679 57.5748 8.18609L57.5807 8.38827V11.8291L47.5796 11.8289L40.8054 4.94726L54.1936 4.94746ZM32.742 0L44.3857 11.8283H21.0983L32.742 0Z" fill="black"/>
<path d="M0.0249267 12.9943L0.0901645 13.0437C0.940398 13.6663 1.96804 14.0542 3.08137 14.1146L3.38711 14.1229H62.0969L62.2959 14.1288C64.008 14.2295 65.379 15.6222 65.4781 17.3615L65.484 17.5637L65.4828 29.0329H59.8389C55.5649 29.0329 52.0834 32.4793 51.9402 36.7854L51.9355 37.0613C51.9355 41.4031 55.3281 44.9398 59.567 45.0852L59.8387 45.09H65.4826L65.4838 56.5592L65.4779 56.7614C65.3788 58.5007 64.0079 59.8934 62.2957 59.9941L62.0967 60H3.65507L3.45683 59.9943C1.75129 59.8942 0.382858 58.5119 0.274778 56.78L0.267962 56.5786L0.0249267 12.9943ZM67.742 31.3269C68.9891 31.3269 70 32.3539 70 33.6207V40.5024C70 41.7692 68.9891 42.7962 67.742 42.7962H59.8387C56.7209 42.7962 54.1936 40.2288 54.1936 37.0615C54.1936 33.8943 56.7209 31.3269 59.8387 31.3269H67.742ZM59.8387 34.7677C58.5916 34.7677 57.5807 35.7947 57.5807 37.0615C57.5807 38.3284 58.5916 39.3554 59.8387 39.3554C61.0858 39.3554 62.0967 38.3284 62.0967 37.0615C62.0967 35.7947 61.0858 34.7677 59.8387 34.7677ZM24.6784 4.94726L17.903 11.8289L3.38711 11.8291L3.18809 11.8231C1.41011 11.7187 0 10.2207 0 8.38827C0 6.5558 1.41011 5.05805 3.18809 4.9534L3.38711 4.94746L24.6784 4.94726ZM54.1936 4.94746L54.3926 4.9534C56.1047 5.05409 57.4757 6.44679 57.5748 8.18609L57.5807 8.38827V11.8291L47.5796 11.8289L40.8054 4.94726L54.1936 4.94746ZM32.742 0L44.3857 11.8283H21.0983L32.742 0Z" fill="#151516"/>
</svg>
