<svg width="38" height="38" viewBox="0 0 38 38" fill="none" xmlns="http://www.w3.org/2000/svg">
<path d="M21.0616 5.73523L13.7854 13.0114C13.1672 13.6297 13.1672 14.632 13.7854 15.2503L17.1437 18.6085C17.7619 19.2268 18.7643 19.2268 19.3825 18.6085L26.6587 11.3323C27.277 10.7141 27.277 9.71172 26.6587 9.09348L23.3005 5.73523C22.6822 5.117 21.6799 5.117 21.0616 5.73523Z" fill="#407BFF"/>
<path d="M26.7821 7.74082L29.0213 5.50191L29.5811 6.06178C29.7296 6.21024 29.931 6.29365 30.1409 6.29365C30.3509 6.29365 30.5522 6.21024 30.7007 6.06178L31.2605 5.50191C31.409 5.35344 31.4924 5.15208 31.4924 4.94212C31.4924 4.73216 31.409 4.5308 31.2605 4.38234L27.9017 1.02337C27.7532 0.874909 27.5519 0.791504 27.3419 0.791504C27.1319 0.791504 26.9306 0.874909 26.7821 1.02337L26.2223 1.58316C26.0739 1.73163 25.9905 1.93299 25.9905 2.14295C25.9905 2.35291 26.0739 2.55427 26.2223 2.70273L26.7821 3.26252L24.543 5.50191L26.7821 7.74082Z" fill="#407BFF"/>
<path d="M31.6693 32.4579H31.177C32.5408 30.9464 33.5639 29.1594 34.1768 27.2181C34.7897 25.2767 34.9782 23.2262 34.7296 21.2056C34.4809 19.185 33.8009 17.2415 32.7355 15.5066C31.6702 13.7718 30.2445 12.2861 28.5549 11.1504C28.4077 11.6403 28.143 12.0868 27.7836 12.4509L25.4324 14.8022C26.6096 15.5012 27.6217 16.4466 28.3992 17.5735C29.1768 18.7004 29.7014 19.9821 29.937 21.3308C30.1727 22.6795 30.1139 24.0632 29.7646 25.387C29.4153 26.7108 28.7838 27.9434 27.9135 29.0002C27.0431 30.0571 25.9544 30.9131 24.7221 31.5097C23.4898 32.1063 22.1431 32.4293 20.7742 32.4566C19.4054 32.4838 18.0468 32.2146 16.7918 31.6675C15.5367 31.1205 14.4149 30.3084 13.5031 29.287C13.4887 29.287 13.4754 29.2913 13.4609 29.2913H7.8401C8.40694 30.4382 9.12592 31.5033 9.9776 32.4579H9.5026C8.66303 32.4588 7.8581 32.7928 7.26443 33.3864C6.67076 33.9801 6.33684 34.785 6.33594 35.6246V36.4163C6.33594 36.6262 6.41935 36.8276 6.56781 36.9761C6.71628 37.1245 6.91764 37.2079 7.1276 37.2079H34.0443C34.2542 37.2079 34.4556 37.1245 34.6041 36.9761C34.7525 36.8276 34.8359 36.6262 34.8359 36.4163V35.6246C34.835 34.785 34.5011 33.9801 33.9074 33.3864C33.3138 32.7928 32.5088 32.4588 31.6693 32.4579Z" fill="#151516"/>
<path d="M15.8346 25.3331V24.5414C15.8346 24.3315 15.7512 24.1301 15.6028 23.9816C15.4543 23.8332 15.2529 23.7498 15.043 23.7498H3.95964C3.74967 23.7498 3.54831 23.8332 3.39984 23.9816C3.25138 24.1301 3.16797 24.3315 3.16797 24.5414V25.3331C3.16866 25.9628 3.4191 26.5665 3.86435 27.0117C4.3096 27.457 4.91329 27.7074 5.54297 27.7081H13.4596C14.0893 27.7074 14.693 27.457 15.1383 27.0117C15.5835 26.5665 15.8339 25.9628 15.8346 25.3331Z" fill="#151516"/>
<path d="M14.3477 20.2882C14.4962 20.4367 14.6976 20.5201 14.9075 20.5201C15.1175 20.5201 15.3188 20.4367 15.4673 20.2882L16.0273 19.7283L12.6684 16.3701L12.1088 16.9297C11.9604 17.0781 11.877 17.2795 11.877 17.4895C11.877 17.6994 11.9604 17.9008 12.1088 18.0492L14.3477 20.2882Z" fill="#407BFF"/>
</svg>
